name C:\Users\r0593348\3dpredictsim\Results\Batchsim_tmt_linear\Pog_s1_tmt_aCst_d05_k800_ig24_act.mot
datacolumns 128
datarows 4
range 1.85133990 1.88836670
endheader
time	pelvis_tilt	pelvis_list	pelvis_rotation	pelvis_tx	pelvis_ty	pelvis_tz	hip_flexion_l	hip_adduction_l	hip_rotation_l	hip_flexion_r	hip_adduction_r	hip_rotation_r	knee_angle_l	knee_angle_r	ankle_angle_l	ankle_angle_r	subtalar_angle_l	subtalar_angle_r	tmt_angle_l	tmt_angle_r	mtp_angle_l	mtp_angle_r	lumbar_extension	lumbar_bending	lumbar_rotation	arm_flex_l	arm_add_l	arm_rot_l	arm_flex_r	arm_add_r	arm_rot_r	elbow_flex_l	elbow_flex_r	pro_sup_l	pro_sup_r	glut_med1_l/activation	glut_med2_l/activation	glut_med3_l/activation	glut_min1_l/activation	glut_min2_l/activation	glut_min3_l/activation	semimem_l/activation	semiten_l/activation	bifemlh_l/activation	bifemsh_l/activation	sar_l/activation	add_long_l/activation	add_brev_l/activation	add_mag1_l/activation	add_mag2_l/activation	add_mag3_l/activation	tfl_l/activation	pect_l/activation	grac_l/activation	glut_max1_l/activation	glut_max2_l/activation	glut_max3_l/activation	iliacus_l/activation	psoas_l/activation	quad_fem_l/activation	gem_l/activation	peri_l/activation	rect_fem_l/activation	vas_med_l/activation	vas_int_l/activation	vas_lat_l/activation	med_gas_l/activation	lat_gas_l/activation	soleus_l/activation	tib_post_l/activation	flex_dig_l/activation	flex_hal_l/activation	tib_ant_l/activation	per_brev_l/activation	per_long_l/activation	per_tert_l/activation	ext_dig_l/activation	ext_hal_l/activation	ercspn_l/activation	intobl_l/activation	extobl_l/activation	glut_med1_r/activation	glut_med2_r/activation	glut_med3_r/activation	glut_min1_r/activation	glut_min2_r/activation	glut_min3_r/activation	semimem_r/activation	semiten_r/activation	bifemlh_r/activation	bifemsh_r/activation	sar_r/activation	add_long_r/activation	add_brev_r/activation	add_mag1_r/activation	add_mag2_r/activation	add_mag3_r/activation	tfl_r/activation	pect_r/activation	grac_r/activation	glut_max1_r/activation	glut_max2_r/activation	glut_max3_r/activation	iliacus_r/activation	psoas_r/activation	quad_fem_r/activation	gem_r/activation	peri_r/activation	rect_fem_r/activation	vas_med_r/activation	vas_int_r/activation	vas_lat_r/activation	med_gas_r/activation	lat_gas_r/activation	soleus_r/activation	tib_post_r/activation	flex_dig_r/activation	flex_hal_r/activation	tib_ant_r/activation	per_brev_r/activation	per_long_r/activation	per_tert_r/activation	ext_dig_r/activation	ext_hal_r/activation	ercspn_r/activation	intobl_r/activation	extobl_r/activation	
          1.85133990	         -2.92972938	          1.03707178	         -7.81461223	          2.31417487	          0.85893822	          0.00195023	         32.36876155	          0.77456925	          0.34658575	        -15.83139977	         -1.67403760	          8.98411555	        -14.83717436	        -16.47858806	          9.06477896	        -10.73712878	          0.06530178	         13.48675864	          0.02968843	          1.24414138	         -0.09196519	         30.95874182	         -0.57467402	          1.29427033	          3.09914350	        -11.36125036	        -13.52121115	          7.50825950	          3.92323647	        -13.49673538	         17.78889466	         18.41630918	         44.15796540	         86.51662706	         86.51662706	          0.08150389	          0.05000026	          0.05000130	          0.05000029	          0.05000034	          0.05000099	          0.19411686	          0.06028580	          0.14128013	          0.05038707	          0.05000723	          0.06030827	          0.08980718	          0.20270095	          0.16005034	          0.12756111	          0.05000373	          0.06027471	          0.06028862	          0.05000074	          0.06767865	          0.10834741	          0.05429004	          0.05558021	          0.18079974	          0.05000745	          0.05000119	          0.05000046	          0.08350547	          0.09504376	          0.07851826	          0.06028522	          0.06028523	          0.06028521	          0.05000019	          0.05000156	          0.05839656	          0.51083956	          0.34311490	          0.20312938	          0.12222292	          0.54520245	          0.35124850	          0.05000024	          0.13381940	          0.11751124	          0.16281807	          0.07800792	          0.07268648	          0.19673276	          0.12740466	          0.08177829	          0.05000353	          0.05000037	          0.05000035	          0.05000122	          0.09775656	          0.05003211	          0.05000040	          0.05000044	          0.05000099	          0.05000069	          0.17578503	          0.05000630	          0.05000114	          0.05000827	          0.05000348	          0.05000140	          0.44891677	          0.60392936	          0.05000077	          0.05000268	          0.06725314	          0.26176656	          0.10835282	          0.10674823	          0.10270915	          0.14789859	          0.22700488	          0.06028499	          0.16381915	          0.19185597	          0.21123902	          0.05000003	          0.36822097	          0.34582692	          0.05000013	          0.19717944	          0.05000017	          0.05000001	          0.05000007	          0.05000009	
          1.86368216	         -2.92907648	          0.98243520	         -8.01921192	          2.33401329	          0.85750374	          0.00165093	         31.69473627	          1.02951142	          0.54745936	        -16.08878980	         -1.90294844	          8.75923667	        -14.85849019	        -17.58701979	          8.47583843	        -13.75521571	         -0.33861268	         13.99233011	          0.04958303	          1.15272152	         -0.08602246	         32.53434537	         -0.31621718	          1.14047274	          3.19461730	        -12.74884309	        -13.50829994	          7.40403329	          3.45067744	        -13.55138848	         18.03803016	         18.33611471	         45.36779109	         86.51662706	         86.51662706	          0.08143613	          0.06936217	          0.05000038	          0.06028575	          0.06028481	          0.05000357	          0.16099887	          0.05000060	          0.11717650	          0.05000021	          0.05000141	          0.05001934	          0.07448539	          0.23518373	          0.19749437	          0.14035684	          0.05000072	          0.05000168	          0.05000307	          0.06028518	          0.10399867	          0.12678239	          0.05000027	          0.05000062	          0.36564818	          0.06028718	          0.06184001	          0.07268606	          0.22413912	          0.22556492	          0.19902951	          0.05000001	          0.05000003	          0.05000000	          0.05000009	          0.07267064	          0.05000048	          0.67038536	          0.35179434	          0.22954652	          0.51845018	          0.61398478	          0.44211645	          0.05000001	          0.11098858	          0.09746273	          0.13503995	          0.06469922	          0.06028609	          0.16316854	          0.10566835	          0.06782643	          0.05000269	          0.05000022	          0.05000028	          0.05000043	          0.08107890	          0.13583539	          0.14524712	          0.08423994	          0.05001177	          0.05000138	          0.14579455	          0.08682564	          0.05001563	          0.05000361	          0.05000225	          0.05000206	          0.37232743	          0.50089347	          0.07268373	          0.06029536	          0.06028551	          0.21710675	          0.11577730	          0.12739791	          0.10368155	          0.12266572	          0.18827574	          0.05000001	          0.13587008	          0.15912360	          0.17519970	          0.19814247	          0.38517663	          0.32522334	          0.47882871	          0.37938870	          0.13438077	          0.05203156	          0.07186914	          0.06028463	
          1.87602443	         -2.92268425	          0.93343585	         -8.18834467	          2.35406464	          0.85576679	          0.00137315	         30.90574037	          1.27550270	          0.81034555	        -16.15652080	         -2.09487899	          8.53209355	        -15.54349507	        -19.04732237	          7.77226667	        -16.54947736	         -0.75892633	         14.45973203	         -0.04176575	          0.96045965	         -0.14935515	         33.27557127	         -0.05007713	          0.96603626	          3.27248485	        -14.11204924	        -13.50701081	          7.39171780	          2.90860096	        -13.61555601	         18.21282833	         18.21673880	         46.56028558	         86.51662706	         86.51662706	          0.25326339	          0.17936769	          0.40141439	          0.05000077	          0.05000033	          0.31861052	          0.13627727	          0.05000180	          0.11115362	          0.05000028	          0.05000069	          0.07268667	          0.17223282	          0.24197040	          0.22746029	          0.17155585	          0.05000032	          0.06320037	          0.12744084	          0.05000021	          0.17870185	          0.18012769	          0.05481355	          0.05000077	          0.30326533	          0.05000204	          0.26226809	          0.06028516	          0.18589898	          0.18708155	          0.16507330	          0.06028519	          0.06028520	          0.06028521	          0.06028509	          0.06028368	          0.06028524	          0.57759293	          0.37267356	          0.19038426	          0.42999848	          0.62796719	          0.36668809	          0.05000068	          0.09205301	          0.08083468	          0.11200213	          0.05366114	          0.05000096	          0.13533076	          0.08764046	          0.05625476	          0.05979262	          0.06028511	          0.06028523	          0.05000043	          0.06724657	          0.15837283	          0.25986875	          0.11525433	          0.06029884	          0.08464143	          0.12092070	          0.07201689	          0.05679426	          0.05007757	          0.05022004	          0.06028427	          0.30880495	          0.41543653	          0.06028522	          0.05001079	          0.05000031	          0.18006632	          0.09602470	          0.10566271	          0.08599257	          0.10173781	          0.15615416	          0.05862741	          0.11268939	          0.13197568	          0.14530903	          0.35073663	          0.46905802	          0.33950683	          0.71408468	          0.49912050	          0.28806573	          0.07225763	          0.05960763	          0.05000028	
          1.88836670	         -2.91347973	          0.89275818	         -8.31626446	          2.37399726	          0.85380848	          0.00110011	         30.03240821	          1.51448418	          1.09522412	        -15.99959780	         -2.24914504	          8.31725338	        -16.33949415	        -20.90851670	          7.26574847	        -18.76297499	         -1.19314335	         14.86348644	         -0.01728187	          0.70876800	         -0.16075692	         32.37671140	          0.19585671	          0.77058951	          3.33077277	        -15.37550464	        -13.52050977	          7.52070763	          2.35188787	        -13.67968915	         18.31787276	         18.01045529	         47.70174886	         86.51662706	         86.51662706	          0.32700557	          0.37691158	          0.48294934	          0.16088890	          0.22103940	          0.26425353	          0.11302711	          0.09336347	          0.09218982	          0.07268339	          0.05000074	          0.06028569	          0.14284833	          0.20068834	          0.21715894	          0.18140946	          0.05000026	          0.05241813	          0.10569853	          0.27370442	          0.23925255	          0.20371863	          0.05000007	          0.05000008	          0.25152572	          0.06390158	          0.21752325	          0.05000004	          0.15418345	          0.22825325	          0.17361358	          0.05000001	          0.05000004	          0.05000000	          0.05000000	          0.05000018	          0.05000017	          0.72354572	          0.38998193	          0.19321081	          0.68729640	          0.71640574	          0.54039521	          0.06119878	          0.07634796	          0.06704354	          0.24487127	          0.05000018	          0.05000008	          0.17632809	          0.07268831	          0.05000058	          0.08737836	          0.05000034	          0.05000048	          0.05000045	          0.05577804	          0.13135336	          0.22937800	          0.09559157	          0.05001285	          0.07020126	          0.10029060	          0.06029228	          0.05000097	          0.05000125	          0.05000079	          0.05000068	          0.25612000	          0.40067196	          0.05000017	          0.05000066	          0.05000038	          0.14934534	          0.07964303	          0.08763742	          0.08763770	          0.08438040	          0.12951282	          0.05000006	          0.09346354	          0.10945948	          0.12051800	          0.29089775	          0.38903265	          0.28240078	          0.65073076	          0.67278335	          0.23891912	          0.11068927	          0.05000001	          0.05000005	
